<?xml version="1.0" encoding="UTF-8"?>
<svg id="Layer_1" data-name="Layer 1" xmlns="http://www.w3.org/2000/svg" viewBox="0 0 1200.6 1200.6">
  <defs>
    <style>
      .cls-1 {
        fill: #f92c16;
      }

      .cls-2 {
        fill: #fff;
      }
    </style>
  </defs>
  <g>
    <path class="cls-1" d="M428.01,955.09l29.88,22.51c31.05-33.77,40.37-71.81,45.42-104.03l-19.8-5.43c-7.76,29.89-24.46,62.49-55.5,86.95Z"/>
    <path class="cls-1" d="M568.14,958.59c-1.55-33.38-10.09-63.66-28.72-92.38l-18.63,5.82c11.26,21.35,14.75,59.39,9.7,92.77l37.65-6.21Z"/>
    <path class="cls-1" d="M669.84,924.04l26-19.02c-17.47-22.51-41.92-42.7-61.33-53.18l-15.14,11.64c16.69,12.42,38.03,34.55,50.46,60.56Z"/>
    <path class="cls-1" d="M635.68,937.62c-8.92-28.34-32.6-64.05-50.85-77.63l-17.47,6.98c13.2,15.91,30.66,49.68,34.94,81.51l33.38-10.87Z"/>
    <path class="cls-1" d="M753.29,836.7l12.81-10.48-27.95-21.74-13.2,11.65h-105.19v-30.66h77.24l19.41-15.91-21.74-18.25-13.2,11.26h-61.71v-31.05h77.24l19.41-15.91-21.74-18.24-13.2,11.64h-61.71v-34.93h100.53l21.74-17.47-24.07-20.18-14.36,12.42h-188.26l-34.55-14.75v220.87h28.73v-13.97h214.65c2.33,36.48-3.88,107.91-82.29,120.33l25.23,21.74s93.93-17.08,86.17-146.34Zm-161.08-127.71h-67.15v22.51h67.15v31.05h-67.15v22.9h67.15v30.66h-82.68v-142.07h82.68v34.93Z"/>
  </g>
  <g>
    <g>
      <path class="cls-2" d="M466.82,438.1c-4.53-4.51-12.18-7.23-18.51-7.23-11.6,0-19.74,9.21-19.74,20.36,0,10.38,7.08,20.24,20.65,20.24,5.59,0,12.17-1.64,15.79-4.37v-10.77h-16.87v-8.25h25.26v23.56c-6.75,4.96-16.29,8.08-24.77,8.08-17.02,0-29.69-12.76-29.69-28.58s12.82-28.52,29.28-28.52c8.55,0,17.69,3.46,25.01,9.72l-6.41,5.76Z"/>
      <path class="cls-2" d="M514.44,422.62c16.94,0,30.43,12.7,30.43,28.44s-13.49,28.66-30.43,28.66-30.19-12.67-30.19-28.66,13.23-28.44,30.19-28.44Zm0,48.85c11.59,0,20.73-9.21,20.73-20.41s-9.14-20.19-20.73-20.19-20.48,9.04-20.48,20.19,8.96,20.41,20.48,20.41Z"/>
      <path class="cls-2" d="M566.92,424.26v45.56h32.99v8.25h-42.2v-53.81h9.21Z"/>
      <path class="cls-2" d="M610.04,478.07v-53.81h25.74c9.71,0,15.14,2.72,19.74,7.17,4.77,4.93,7.32,11.88,7.32,19.7s-2.79,15.39-7.9,20.33c-4.6,4.14-9.45,6.61-19.16,6.61h-25.74Zm25.33-8.25c6.84,0,9.13-1.56,12.34-4.2,3.45-3.46,5.51-8.73,5.51-14.49s-1.81-10.63-5.18-14.09c-3.04-2.81-5.92-4.54-12.67-4.54h-16.12v37.31h16.12Z"/>
      <path class="cls-2" d="M706.03,454.09h-20.65v15.73h36.36v8.25h-45.57v-53.81h43.59v8.25h-34.37v13.35h20.65v8.22Z"/>
      <path class="cls-2" d="M782.45,424.26v53.81h-8.14l-31.01-37.34h-.08v37.34h-9.21v-53.81h8.14l31.02,37.34h.07v-37.34h9.21Z"/>
    </g>
    <g>
      <path class="cls-2" d="M453.08,571.64v-53.81h9.21v20.36h29.2v-20.36h9.21v53.81h-9.21v-25.2h-29.2v25.2h-9.21Z"/>
      <path class="cls-2" d="M542.9,514.99c16.94,0,30.43,12.7,30.43,28.44s-13.49,28.66-30.43,28.66-30.19-12.67-30.19-28.66,13.23-28.44,30.19-28.44Zm0,48.85c11.59,0,20.73-9.21,20.73-20.41s-9.14-20.19-20.73-20.19-20.48,9.04-20.48,20.19,8.96,20.41,20.48,20.41Z"/>
      <path class="cls-2" d="M585.01,570.44v-53.81h29.61c7.16,0,12.1,1.98,15.55,5.7,2.72,2.86,4.27,6.66,4.27,10.77,0,7.26-4.77,12.79-11.85,15.42l12.84,21.92h-10.61l-11.52-20.67h-19.08v20.67h-9.21Zm9.21-45.56v16.64h22.05c4.84,0,8.96-3.8,8.96-8.42,0-2.04-.82-3.86-2.22-5.33-2.55-2.64-5.51-2.89-8.39-2.89h-20.39Z"/>
      <path class="cls-2" d="M687.25,529.25c-2.96-2.72-9.62-6.27-19.49-6.27-6.42,0-12.1,2.07-12.1,7.74s7.98,6.1,16.12,6.69c9.62,.65,24.77,1.64,24.77,16.64,0,13.01-10.85,18.03-23.69,18.03-14.15,0-23.36-5.84-29.37-11.28l5.59-6.44c4.36,3.97,11.93,9.72,23.94,9.72,7.97,0,14.31-2.72,14.31-8.82,0-6.75-6.17-8.14-15.55-8.9-11.85-.82-25.33-1.81-25.33-14.83s11.76-16.56,21.64-16.56c11.35,0,20.48,4.45,24.75,7.82l-5.59,6.44Z"/>
      <path class="cls-2" d="M739.49,546.46h-20.65v15.73h36.36v8.25h-45.57v-53.81h43.59v8.25h-34.37v13.35h20.65v8.22Z"/>
    </g>
  </g>
  <g>
    <path class="cls-1" d="M576.67,1151.87c0,29.58-25.41,48.74-64.57,48.74-47.28,0-76.65-27.91-76.65-72.27s31.66-74.36,81.23-74.36c21.45,0,40.19,5,54.15,14.58l-6.04,11.66c-12.7-9.16-29.16-13.75-48.11-13.75-40.82,0-67.28,24.58-67.28,62.28,0,3.75,.21,7.29,.83,10.83,19.16-19.37,44.36-29.58,71.86-29.58,33.74,0,54.57,16.04,54.57,41.86Zm-13.95,0c0-18.54-15.41-29.37-42.07-29.37s-49.99,10-67.9,27.91c7.71,23.54,29.16,37.7,59.36,37.7s50.61-14.58,50.61-36.24Z"/>
    <path class="cls-1" d="M599.81,1127.29c0-43.32,30.41-73.31,74.36-73.31s74.35,29.99,74.35,73.31-30.41,73.31-74.35,73.31-74.36-29.99-74.36-73.31Zm134.76,0c0-36.24-24.58-60.82-60.4-60.82s-60.4,24.58-60.4,60.82,24.58,60.82,60.4,60.82,60.4-24.58,60.4-60.82Z"/>
  </g>
  <g>
    <polygon class="cls-1" points="731.61 320.48 615.28 320.48 615.28 216.6 728.09 216.6 749.63 198.98 725.73 178.61 710.85 191.54 615.28 191.54 615.28 149.63 662.04 149.63 683.97 132 659.68 111.63 644.8 124.56 527.03 124.56 527.03 149.63 584.73 149.63 584.73 191.54 456.65 191.54 456.65 216.6 584.73 216.6 584.73 320.48 440.2 320.48 440.2 345.94 748.85 345.94 770.39 327.14 746.49 306.38 731.61 320.48"/>
    <path class="cls-1" d="M646.16,314.49s26.53-19.13,71.98-71.47l-30.87-19.72c-.4,.38-22.23,39.59-55.24,82.49l14.13,8.69Z"/>
    <path class="cls-1" d="M497.48,224.94l-13.85,9.97c33.41,40.79,53.11,78.39,53.11,78.39l30-19.85s-24.41-32.46-69.26-68.51Z"/>
    <path class="cls-1" d="M601.29,47.93c19.22,20.04,80.45,79.65,160.95,115.69l28.58-27.52c-75.77-23.94-154.08-88.11-175.46-106.45,3.56-4.91,7.07-9.91,10.48-15.11L587.35,0s-45.83,95.26-169.15,159.73l14.25,14.2s94.65-35.26,168.84-126Z"/>
  </g>
</svg>