<?xml version="1.0" encoding="UTF-8"?>
<svg id="Layer_1" data-name="Layer 1" xmlns="http://www.w3.org/2000/svg" viewBox="0 0 3711.61 3711.61">
  <defs>
    <style>
      .cls-1 {
        fill: #f92c16;
      }
    </style>
  </defs>
  <g>
    <path class="cls-1" d="M1737.77,2518.33h137.84v22.05h-56.46v121.96h-24.7v-121.96h-56.68v-22.05Z"/>
    <path class="cls-1" d="M1881.13,2565.97c9.7-5.95,28.67-13.67,50.51-13.67,24.04,0,48.3,7.94,48.3,31.32v59.55c0,5.51,.44,13.45,2.87,19.19h-22.93c-1.32-3.09-2.21-9.04-2.65-13.23-8.38,7.28-20.07,15.44-40.58,15.44-25.36,0-41.9-15-41.9-36.61,0-18.96,17.42-34.18,49.18-34.18,11.69,0,25.8,2.65,33.3,8.16v-11.69c0-13.01-11.47-18.53-26.69-18.53-16.54,0-33.97,7.72-41.46,13.01l-7.94-18.75Zm76.09,64.4v-10.81c-4.85-3.53-16.1-7.94-29.55-7.94-22.28,0-29.99,7.06-29.99,16.32,0,9.93,8.6,17.64,23.82,17.64,19.85,0,33.52-12.79,35.73-15.22Z"/>
    <path class="cls-1" d="M2028.23,2507.97c8.16,0,14.56,6.18,14.56,13.23s-6.4,13.01-14.56,13.01-14.34-5.74-14.34-13.01,6.17-13.23,14.34-13.23Zm-11.25,154.38v-106.52h22.72v106.52h-22.72Z"/>
    <path class="cls-1" d="M2096.82,2555.82c1.1,5.29,1.54,9.48,1.54,14.78,4.63-7.06,17.87-18.31,35.07-18.31,28.67,0,52.27,22.5,52.27,57.12s-23.82,56.24-52.27,56.24c-11.91,0-23.38-5.73-32.86-16.32v58.67h-22.72v-123.06c0-9.26,0-18.97-1.98-29.11h20.95Zm63.74,53.59c0-22.5-13.23-37.05-29.33-37.05s-27.13,10.59-30.66,15v43.67c8.82,9.04,19.63,14.78,30.66,14.78,16.32,0,29.33-14.34,29.33-36.39Z"/>
    <path class="cls-1" d="M2314.93,2645.81c-11.69,11.24-31.1,19.85-52.49,19.85-34.18,0-53.59-25.36-53.59-55.8,0-31.98,22.72-57.57,55.58-57.57,25.58,0,53.59,15.66,53.59,55.36,0,1.98,0,4.19-.22,6.4h-86.01c1.54,17.42,12.35,31.54,33.08,31.54,13.23,0,26.47-5.73,34.85-14.56l15.22,14.78Zm-81.82-49.62h59.77c-.22-16.99-15.44-24.92-29.55-24.92-16.32,0-26.47,11.03-30.22,24.92Z"/>
    <path class="cls-1" d="M2359.26,2507.97c8.16,0,14.56,6.18,14.56,13.23s-6.4,13.01-14.56,13.01-14.34-5.74-14.34-13.01,6.17-13.23,14.34-13.23Zm-11.25,154.38v-106.52h22.72v106.52h-22.72Z"/>
    <path class="cls-1" d="M1871.64,2788.89c-12.13-12.13-32.64-19.41-49.62-19.41-31.1,0-52.93,24.7-52.93,54.48,0,27.79,18.97,54.25,55.36,54.25,15,0,32.64-4.41,42.34-11.69v-28.89h-45.21v-22.05h67.71v63.07c-18.09,13.23-43.67,21.62-66.39,21.62-45.65,0-79.62-34.18-79.62-76.53s34.4-76.31,78.51-76.31c22.94,0,47.42,9.26,67.05,26.02l-17.2,15.44Z"/>
    <path class="cls-1" d="M1975.08,2785.8c33.97,0,56.9,25.15,56.9,56.46s-22.93,56.9-56.9,56.9-56.46-24.92-56.46-56.9,22.72-56.46,56.46-56.46Zm0,94.4c21.17,0,33.52-17.43,33.52-37.94s-12.35-37.49-33.52-37.49-32.86,17.64-32.86,37.49,12.13,37.94,32.86,37.94Z"/>
    <path class="cls-1" d="M2063.51,2895.86v-154.38h22.72v154.38h-22.72Z"/>
    <path class="cls-1" d="M2206.87,2895.86c-1.1-4.63-1.54-10.14-1.54-14.77-4.63,7.06-17.87,18.08-35.07,18.08-28.67,0-52.27-22.28-52.27-56.9s23.82-56.46,52.27-56.46c11.91,0,23.38,5.07,32.86,14.34v-58.67h22.72v125.05c0,9.26,0,19.19,1.99,29.33h-20.95Zm-63.74-53.59c0,22.5,13.23,37.05,29.33,37.05s27.13-10.59,30.65-15v-43.67c-8.82-9.04-19.63-14.78-30.65-14.78-16.32,0-29.33,14.34-29.33,36.39Z"/>
    <path class="cls-1" d="M2362.57,2879.32c-11.69,11.24-31.1,19.85-52.49,19.85-34.18,0-53.59-25.36-53.59-55.8,0-31.98,22.72-57.57,55.58-57.57,25.58,0,53.59,15.66,53.59,55.36,0,1.98,0,4.19-.22,6.4h-86.01c1.54,17.42,12.35,31.54,33.08,31.54,13.23,0,26.47-5.73,34.85-14.56l15.22,14.78Zm-81.82-49.62h59.77c-.22-16.99-15.44-24.92-29.55-24.92-16.32,0-26.47,11.03-30.22,24.92Z"/>
    <path class="cls-1" d="M2451.45,2785.8c22.94,0,41.02,15.88,41.02,37.94v72.12h-22.94v-72.12c0-9.71-9.04-17.87-21.83-17.87s-22.5,8.6-29.11,16.99v73h-22.72v-77.19c0-9.48-.66-19.19-2.65-29.33h20.73c1.32,5.51,1.76,9.48,2.2,15.66,7.94-9.7,17.64-19.19,35.29-19.19Z"/>
    <path class="cls-1" d="M2584.65,2895.86v-144.01h24.7v54.47h78.29v-54.47h24.7v144.01h-24.7v-67.49h-78.29v67.49h-24.7Z"/>
    <path class="cls-1" d="M2801.45,2785.8c33.97,0,56.9,25.15,56.9,56.46s-22.93,56.9-56.9,56.9-56.46-24.92-56.46-56.9,22.72-56.46,56.46-56.46Zm0,94.4c21.17,0,33.52-17.43,33.52-37.94s-12.35-37.49-33.52-37.49-32.86,17.64-32.86,37.49,12.13,37.94,32.86,37.94Z"/>
    <path class="cls-1" d="M2911.72,2826.16v69.69h-22.72v-77.41c0-9.48-.88-18.97-2.87-29.11h20.95c1.32,6.18,1.76,10.81,2.2,17.86,7.06-10.8,15.44-21.39,30.88-21.39,6.17,0,12.13,1.55,15,4.41l-6.84,21.17c-3.09-1.98-10.15-3.31-13.45-3.31-10.15,0-17.2,9.48-23.16,18.09Z"/>
    <path class="cls-1" d="M3055.73,2815.14c-7.06-3.97-24.04-10.81-39.48-10.81-11.47,0-21.61,3.75-21.61,12.35,0,10.81,16.54,11.91,26.02,12.35,18.75,.88,50.73,2.65,50.73,33.52,0,25.36-21.83,37.05-49.84,37.05-24.92,0-42.34-9.26-52.93-16.32l8.6-17.2c9.93,5.95,24.7,14.56,44.11,14.56,15.66,0,27.35-5.52,27.35-15.88,0-12.13-16.32-13.46-28.01-14.11-22.28-1.32-48.74-3.31-48.74-31.32,0-26.02,23.16-33.97,43.89-33.97s40.14,7.5,48.52,12.35l-8.6,17.43Z"/>
    <path class="cls-1" d="M3198.86,2879.32c-11.69,11.24-31.1,19.85-52.49,19.85-34.18,0-53.59-25.36-53.59-55.8,0-31.98,22.72-57.57,55.58-57.57,25.58,0,53.59,15.66,53.59,55.36,0,1.98,0,4.19-.22,6.4h-86.01c1.54,17.42,12.35,31.54,33.08,31.54,13.23,0,26.47-5.73,34.85-14.56l15.22,14.78Zm-81.82-49.62h59.77c-.22-16.99-15.44-24.92-29.55-24.92-16.32,0-26.47,11.03-30.22,24.92Z"/>
    <path class="cls-1" d="M1756.07,3129.36v-144.01h115.79v22.05h-91.09v35.73h55.36v22.05h-55.36v64.18h-24.7Z"/>
    <path class="cls-1" d="M1905.61,2974.98c8.16,0,14.56,6.17,14.56,13.23s-6.4,13.01-14.56,13.01-14.34-5.74-14.34-13.01,6.17-13.23,14.34-13.23Zm-11.25,154.38v-106.52h22.72v106.52h-22.72Z"/>
    <path class="cls-1" d="M1956.11,3129.36v-154.38h22.72v154.38h-22.72Z"/>
    <path class="cls-1" d="M2110.27,3129.36h-22.94v-72.12c0-9.71-8.16-17.87-19.63-17.87s-20.73,8.6-26.91,16.99v73h-22.72v-77.41c0-9.48-.66-18.97-2.65-29.11h20.73c1.32,5.51,1.76,9.48,2.2,15.66,7.5-9.7,16.54-19.19,33.08-19.19,15.66,0,28.89,8.38,35.07,21.39,7.5-11.47,18.08-21.39,34.4-21.39,21.61,0,38.81,15.88,38.81,37.94v72.12h-22.93v-72.12c0-9.71-8.16-17.87-19.63-17.87s-20.73,8.6-26.91,16.99v73Z"/>
    <path class="cls-1" d="M2271.92,3129.36v-144.01h115.79v22.05h-91.09v35.73h55.36v22.05h-55.36v64.18h-24.7Z"/>
    <path class="cls-1" d="M2493.79,3112.82c-11.69,11.24-31.1,19.85-52.49,19.85-34.18,0-53.59-25.36-53.59-55.8,0-31.98,22.72-57.57,55.58-57.57,25.58,0,53.59,15.66,53.59,55.36,0,1.98,0,4.19-.22,6.4h-86.01c1.54,17.42,12.35,31.54,33.08,31.54,13.23,0,26.47-5.73,34.85-14.56l15.22,14.78Zm-81.82-49.62h59.77c-.22-16.99-15.44-24.92-29.55-24.92-16.32,0-26.47,11.03-30.22,24.92Z"/>
    <path class="cls-1" d="M2605.16,3048.64c-7.06-3.97-24.04-10.81-39.48-10.81-11.47,0-21.61,3.75-21.61,12.35,0,10.81,16.54,11.91,26.02,12.35,18.75,.88,50.73,2.65,50.73,33.52,0,25.36-21.83,37.05-49.84,37.05-24.92,0-42.34-9.26-52.93-16.32l8.6-17.2c9.93,5.95,24.7,14.56,44.11,14.56,15.66,0,27.35-5.52,27.35-15.88,0-12.13-16.32-13.46-28.01-14.11-22.28-1.32-48.74-3.31-48.74-31.32,0-26.02,23.16-33.97,43.89-33.97s40.14,7.5,48.52,12.35l-8.6,17.43Z"/>
    <path class="cls-1" d="M2636.7,3022.84h19.85v-31.54h22.72v31.54h28.01v17.86h-28.01v62.2c0,7.06,4.85,10.81,12.57,10.81,4.41,0,12.79-.88,15.44-1.76l2.21,17.86c-3.75,2.42-14.78,3.97-22.05,3.97-14.11,0-30.88-7.72-30.88-30.88v-62.2h-19.85v-17.86Z"/>
    <path class="cls-1" d="M2747.85,2974.98c8.16,0,14.56,6.17,14.56,13.23s-6.4,13.01-14.56,13.01-14.34-5.74-14.34-13.01,6.17-13.23,14.34-13.23Zm-11.25,154.38v-106.52h22.72v106.52h-22.72Z"/>
    <path class="cls-1" d="M2895.62,3022.84l-46.53,106.52h-18.97l-46.32-106.52h25.81l29.99,74.99h1.32l31.32-74.99h23.38Z"/>
    <path class="cls-1" d="M2917.67,3032.98c9.7-5.95,28.67-13.67,50.5-13.67,24.04,0,48.3,7.94,48.3,31.32v59.55c0,5.51,.44,13.45,2.87,19.19h-22.94c-1.32-3.09-2.2-9.04-2.65-13.23-8.38,7.28-20.07,15.44-40.58,15.44-25.36,0-41.9-15-41.9-36.61,0-18.96,17.42-34.18,49.18-34.18,11.69,0,25.8,2.65,33.3,8.16v-11.69c0-13.01-11.47-18.53-26.69-18.53-16.54,0-33.97,7.72-41.46,13.01l-7.94-18.75Zm76.09,64.4v-10.81c-4.85-3.53-16.1-7.94-29.55-7.94-22.28,0-29.99,7.06-29.99,16.32,0,9.93,8.6,17.64,23.82,17.64,19.85,0,33.52-12.79,35.73-15.22Z"/>
    <path class="cls-1" d="M3054.62,3129.36v-154.38h22.72v154.38h-22.72Z"/>
    <path class="cls-1" d="M3160.26,3022.84c14.78-11.69,29.99-22.93,56.24-22.93s50.95,10.58,50.95,35.51c0,30.43-34.4,37.93-52.27,43.45-16.76,5.29-30.65,12.35-30.65,29.77v1.32h80.06v19.41h-104.54v-18.53c0-31.31,26.69-46.09,54.47-53.59,5.96-1.55,28.45-7.28,28.45-21.17,0-10.58-13.23-14.56-25.8-14.56-19.19,0-30.88,8.38-42.57,18.53l-14.34-17.2Z"/>
    <path class="cls-1" d="M3360.29,2999.9c37.71,0,69.47,29.55,69.47,66.82s-31.76,66.83-69.47,66.83-69.03-29.33-69.03-66.83,31.32-66.82,69.03-66.82Zm0,112.04c24.48,0,44.99-20.51,44.99-45.22s-20.51-45.21-44.99-45.21-44.55,20.51-44.55,45.21,19.85,45.22,44.55,45.22Z"/>
    <path class="cls-1" d="M3454.24,3022.84c14.78-11.69,29.99-22.93,56.24-22.93s50.95,10.58,50.95,35.51c0,30.43-34.41,37.93-52.27,43.45-16.76,5.29-30.65,12.35-30.65,29.77v1.32h80.05v19.41h-104.54v-18.53c0-31.31,26.68-46.09,54.47-53.59,5.96-1.55,28.45-7.28,28.45-21.17,0-10.58-13.23-14.56-25.81-14.56-19.19,0-30.88,8.38-42.56,18.53l-14.34-17.2Z"/>
    <path class="cls-1" d="M3640.16,3053.71h19.63c9.48,0,17.64-5.74,17.64-14.56,0-13.01-14.56-17.64-26.46-17.64-17.2,0-33.3,9.93-44.33,20.29l-15-15c14.33-13.46,34.63-26.91,59.77-26.91,21.39,0,50.72,9.26,50.72,35.07,0,13.01-8.6,22.28-14.77,24.92,9.26,2.21,24.26,10.15,24.26,29.99,0,28.23-28.89,43.89-64.84,43.89-26.46,0-48.08-8.16-66.16-26.46l14.99-17.2c12.13,12.57,27.79,21.83,51.17,21.83s40.36-8.6,40.36-23.6c0-12.57-14.99-15-24.7-15h-22.28v-19.63Z"/>
  </g>
  <g>
    <path class="cls-1" d="M682.02,3022.95l36.61-16.1h24.48v125.27h-24.48v-102.99l-31.32,13.67-5.29-19.85Z"/>
    <path class="cls-1" d="M770.02,3022.95l36.61-16.1h24.48v125.27h-24.48v-102.99l-31.32,13.67-5.29-19.85Z"/>
    <path class="cls-1" d="M881.39,3103.45c9.92,0,17.64,7.28,17.64,16.1s-7.72,15.88-17.64,15.88-17.42-7.06-17.42-15.88,7.5-16.1,17.42-16.1Z"/>
    <path class="cls-1" d="M944.69,3025.6c14.78-11.69,29.99-22.93,56.24-22.93s50.95,10.58,50.95,35.51c0,30.43-34.4,37.93-52.27,43.45-16.76,5.29-30.65,12.35-30.65,29.77v1.32h80.06v19.41h-104.54v-18.53c0-31.31,26.69-46.09,54.47-53.59,5.96-1.55,28.45-7.28,28.45-21.17,0-10.58-13.23-14.56-25.8-14.56-19.19,0-30.88,8.38-42.57,18.53l-14.34-17.2Z"/>
    <path class="cls-1" d="M1182.2,3032.66c-9.7-5.29-23.16-8.38-36.83-8.38-24.48,0-46.75,15.66-48.96,42.57,12.35-8.38,30.66-17.2,53.15-17.2,35.29,0,51.83,20.73,51.83,39.92,0,26.68-23.38,46.75-57.12,46.75-35.73,0-70.13-22.05-70.13-64.84s33.52-68.81,71.9-68.81c27.35,0,43.45,9.7,48.96,12.79l-12.79,17.2Zm-83.81,52.27c6.17,19.41,25.14,29.78,46.31,29.78,18.97,0,32.2-12.35,32.2-25.58,0-8.82-8.16-19.63-29.55-19.63-19.19,0-37.05,8.38-48.96,15.44Z"/>
  </g>
  <path class="cls-1" d="M1165.37,2779.15v121.11h-14.98v-121.11h14.98Z"/>
  <g>
    <path class="cls-1" d="M641.27,2543.44l36.56-16.08h24.45v125.09h-24.45v-102.84l-31.27,13.65-5.29-19.82Z"/>
    <path class="cls-1" d="M804.88,2523.18c37.66,0,69.37,29.51,69.37,66.73s-31.71,66.72-69.37,66.72-68.93-29.29-68.93-66.72,31.27-66.73,68.93-66.73Zm0,111.87c24.45,0,44.93-20.48,44.93-45.14s-20.48-45.15-44.93-45.15-44.48,20.48-44.48,45.15,19.82,45.14,44.48,45.14Z"/>
    <path class="cls-1" d="M912.33,2623.82c9.91,0,17.62,7.27,17.62,16.08s-7.71,15.86-17.62,15.86-17.4-7.05-17.4-15.86,7.49-16.08,17.4-16.08Z"/>
    <path class="cls-1" d="M957.24,2546.08c14.76-11.67,29.95-22.9,56.16-22.9s50.87,10.57,50.87,35.46c0,30.39-34.35,37.88-52.19,43.38-16.74,5.29-30.61,12.33-30.61,29.73v1.32h79.94v19.38h-104.39v-18.5c0-31.27,26.65-46.03,54.39-53.51,5.95-1.54,28.41-7.27,28.41-21.14,0-10.57-13.21-14.53-25.77-14.53-19.16,0-30.83,8.37-42.51,18.5l-14.31-17.17Z"/>
    <path class="cls-1" d="M1086.28,2527.36h114.74v22.02l-68.49,103.07h-32.15l72.45-103.29h-86.55v-21.8Z"/>
  </g>
  <g>
    <path class="cls-1" d="M1924.43,672.56c7.5,8.54,16.3,19.66,23.8,31.05l21.22-16.3c-19.67-23.8-46.83-47.35-81.76-70.37l-11.9,9.57c10.87,7.76,23.03,18.37,36.74,32.6-43.21,4.66-81.5,6.99-111.25,8.54,13.97-14.23,36.99-41.14,52.26-68.56l-25.36-9.83c-1.29,3.36-19.4,44.5-48.38,79.43-25.87,1.04-40.88,.52-40.88,.52l8.8,23.28c70.63-5.69,134.54-11.64,176.71-19.92Z"/>
    <path class="cls-1" d="M1926.25,822.1v-86.67l10.09-8.8-22.51-18.11-13.45,11.9h-96.51l-25.87-11.64v113.32h21.22v-11.38h105.82v11.38h21.22Zm-127.04-29.49v-54.07h105.82v54.07h-105.82Z"/>
    <path class="cls-1" d="M1954.96,892.96s-24.32,23.29-68.82,50.97c-1.3-27.42,0-58.99,1.03-88.22h-21.22c-2.07,58.47-2.59,106.08,6.21,142.56,10.61,43.72,34.67,71.41,83.31,83.83l17.85-17.59c-50.19-9.05-70.89-36.22-81.24-74.51-2.33-8.54-3.88-18.63-4.92-30.01,13.71-6.21,45.02-21.47,84.86-47.35l-17.07-19.66Z"/>
    <path class="cls-1" d="M1815.77,1014.56v66.23h21.22v-225.09h-21.22v60.28h-72.44v18.63h72.44v61.06c-35.45,19.66-81.76,37.26-81.76,37.26l14.49,21.47s30.53-15.52,67.27-39.84Z"/>
    <g>
      <polygon class="cls-1" points="1941.72 1317.49 1864.42 1317.49 1864.42 1248.47 1939.38 1248.47 1953.7 1236.76 1937.82 1223.22 1927.93 1231.81 1864.42 1231.81 1864.42 1203.97 1895.49 1203.97 1910.07 1192.25 1893.93 1178.72 1884.04 1187.31 1805.79 1187.31 1805.79 1203.97 1844.13 1203.97 1844.13 1231.81 1759.02 1231.81 1759.02 1248.47 1844.13 1248.47 1844.13 1317.49 1748.09 1317.49 1748.09 1334.41 1953.18 1334.41 1967.49 1321.92 1951.61 1308.13 1941.72 1317.49"/>
      <path class="cls-1" d="M1884.94,1313.51s17.63-12.71,47.83-47.49l-20.51-13.1c-.27,.25-14.77,26.3-36.71,54.81l9.39,5.77Z"/>
      <path class="cls-1" d="M1786.15,1254.01l-9.2,6.62c22.2,27.1,35.29,52.09,35.29,52.09l19.93-13.19s-16.22-21.57-46.02-45.52Z"/>
      <path class="cls-1" d="M1855.13,1136.39c12.77,13.32,53.46,52.92,106.95,76.87l18.99-18.29c-50.35-15.91-102.38-58.54-116.59-70.73,2.37-3.26,4.7-6.58,6.96-10.04l-25.58-9.66s-30.46,63.3-112.39,106.14l9.47,9.43s62.9-23.43,112.19-83.72Z"/>
    </g>
    <path class="cls-1" d="M1877.86,1573.6c-5.95-18.89-21.73-42.69-33.89-51.74l-11.64,4.65c8.8,10.61,20.44,33.12,23.29,54.33l22.25-7.24Z"/>
    <path class="cls-1" d="M1832.84,1587.58c-1.03-22.25-6.73-42.43-19.15-61.58l-12.42,3.88c7.5,14.23,9.83,39.59,6.46,61.84l25.1-4.14Z"/>
    <path class="cls-1" d="M1739.45,1585.25l19.92,15.01c20.7-22.51,26.91-47.87,30.27-69.34l-13.2-3.62c-5.17,19.92-16.3,41.65-36.99,57.95Z"/>
    <path class="cls-1" d="M1900.63,1564.55l17.33-12.68c-11.64-15.01-27.94-28.46-40.88-35.45l-10.09,7.76c11.12,8.28,25.35,23.03,33.63,40.36Z"/>
    <path class="cls-1" d="M1946.17,1484.86l-8.8,7.76h-70.11v-20.44h51.48l12.94-10.61-14.49-12.16-8.8,7.5h-41.14v-20.7h51.48l12.94-10.61-14.49-12.16-8.8,7.76h-41.14v-23.28h67.01l14.49-11.64-16.04-13.45-9.57,8.28h-125.48l-23.03-9.83v147.22h19.15v-9.31h143.07c1.55,24.32-2.59,71.93-54.85,80.21l16.82,14.49s62.61-11.38,57.44-97.54l8.54-6.99-18.63-14.49Zm-97.28-63.65h-44.76v15.01h44.76v20.7h-44.76v15.26h44.76v20.44h-55.11v-94.69h55.11v23.28Z"/>
    <path class="cls-1" d="M1842.16,1852.48l8.8,10.61s73.99-11.9,125.74-95.73l-19.66-12.42c-38.04,77.62-114.88,97.54-114.88,97.54Z"/>
    <path class="cls-1" d="M1960.14,1638.26s-6.73-3.1-20.18-10.09c-14.75,27.17-35.96,48.64-62.87,63.64l8.79,10.09c29.5-13.71,54.07-34.93,74.26-63.65Z"/>
    <path class="cls-1" d="M1857.16,1838.25l15.78-14.23s-13.97-11.12-32.34-21.22l-8.79,7.24s16.04,14.49,25.35,28.2Z"/>
    <rect class="cls-1" x="1788.86" y="1664.39" width="48.9" height="11.9"/>
    <path class="cls-1" d="M1968.16,1698.8l-19.4-11.12c-18.89,35.45-43.99,59.77-74.25,76.58l8.28,10.09c34.93-16.3,64.68-42.69,85.38-75.55Z"/>
    <path class="cls-1" d="M1893.9,1721.82l-13.97-11.9-8.54,7.5h-48.38v-16.56h23.03v8.28h18.11v-53.04l9.83-8.54-17.07-14.75-8.79,7.24h-65.98l-19.15-7.76v76.84h17.85v-8.28h24.58v16.56h-62.87v14.49h138.94l12.42-10.09Zm-113.06-33.12v-36.48h65.2v36.48h-65.2Z"/>
    <path class="cls-1" d="M1824.3,1832.3v-42.43h20.18v7.5h17.85v-40.1l8.02-7.24-16.3-12.68-8.54,7.76h-60.02l-19.92-8.54v60.8h17.59v-7.5h22.51v39.07c0,5.43-.78,11.38-10.87,14.75-11.64,3.88-23.8,4.14-23.8,4.14l14.49,15.53c16.82-3.36,38.81-7.76,38.81-31.05Zm-41.14-55.88v-19.15h61.32v19.15h-61.32Z"/>
    <path class="cls-1" d="M1783.94,1803.06s-14.23,23.28-47.86,42.95l9.06,8.02c19.15-8.28,38.03-21.48,55.11-39.07l-16.3-11.9Z"/>
    <path class="cls-1" d="M1947.98,2058.65l-16.82-13.97s-9.84,14.23-30.53,28.46c-9.83-9.31-18.11-20.7-24.06-34.41h69.59l12.68-10.09-13.97-12.94-8.53,7.5h-36.22v-25.61h32.08l12.42-10.35-13.97-13.46-8.53,8.28h-21.99v-22.51h-18.37v22.51h-34.93v-22.51h-18.37v22.51h-34.41v15.52h34.41v25.61h-42.95c3.88-24.06,4.66-47.6,4.66-69.08h132.21v8.8h18.89v-48.64l8.8-7.5-16.56-15.78-9.57,7.5h-133.76l-20.44-8.8c3.62,87.71,2.33,172.57-38.29,224.58l11.38,8.02c21.47-25.1,33.37-54.33,39.84-83.57h33.12v54.59c-13.2,2.06-26.91,3.88-41.14,5.17l6.73,19.15c34.67-5.44,68.82-12.94,97.54-25.61l.26-13.97c-14.23,4.66-28.98,8.54-44.5,11.64v-50.97h26.91c23.54,71.67,95.99,83.31,95.99,83.31l18.37-17.07c-24.32-3.11-46.83-10.61-64.68-23.29,9.31-4.66,23.54-12.68,36.74-23.03Zm-25.61-143.59v22.51h-132.21c0-10.09-.26-17.08-.26-22.51h132.47Zm-75.55,108.15v-25.61h34.93v25.61h-34.93Z"/>
  </g>
</svg>